<?xml version="1.0" encoding="utf-8"?>
<!-- Generator: Adobe Illustrator 16.0.3, SVG Export Plug-In . SVG Version: 6.00 Build 0)  -->
<!DOCTYPE svg PUBLIC "-//W3C//DTD SVG 1.1//EN" "http://www.w3.org/Graphics/SVG/1.1/DTD/svg11.dtd">
<svg version="1.1" id="Layer_1" xmlns="http://www.w3.org/2000/svg" xmlns:xlink="http://www.w3.org/1999/xlink" x="0px" y="0px"
	 width="53.857px" height="77.953px" viewBox="0 0 53.857 77.953" enable-background="new 0 0 53.857 77.953" xml:space="preserve">
<polygon fill="#070707" points="27.138,56.326 20.452,44.745 27.138,44.745 33.823,44.745 "/>
<g>
	<path fill="#FFFFFF" d="M19.66,25.859v-0.555c0-0.17-0.003-0.353-0.009-0.548c-0.005-0.195-0.021-0.383-0.052-0.563h1.814
		c-0.029,0.17-0.047,0.357-0.054,0.563c-0.005,0.205-0.007,0.388-0.007,0.548v0.555h3.12c0.39,0,0.772-0.002,1.147-0.008
		c0.375-0.005,0.757-0.022,1.146-0.052v1.515c-0.391-0.03-0.771-0.048-1.146-0.053c-0.375-0.005-0.759-0.007-1.147-0.007h-7.92
		c-0.391,0-0.771,0.002-1.146,0.007c-0.375,0.005-0.759,0.022-1.147,0.053V25.8c0.39,0.029,0.772,0.047,1.147,0.052
		c0.375,0.006,0.757,0.008,1.146,0.008L19.66,25.859L19.66,25.859z M17.155,21.209c-0.27,0-0.513,0.003-0.728,0.008
		c-0.215,0.005-0.452,0.022-0.713,0.053v-1.5c0.261,0.03,0.498,0.048,0.713,0.052c0.215,0.006,0.458,0.008,0.728,0.008h6.705
		c0.261,0,0.497-0.002,0.714-0.008c0.215-0.004,0.456-0.021,0.727-0.052v1.5c-0.271-0.03-0.512-0.048-0.727-0.053
		c-0.217-0.005-0.453-0.008-0.714-0.008l-2.415,0.016c0.141,0.359,0.367,0.665,0.684,0.915c0.313,0.25,0.677,0.46,1.087,0.63
		c0.46,0.2,0.948,0.354,1.463,0.465c0.515,0.111,0.997,0.195,1.447,0.255c-0.2,0.24-0.375,0.46-0.524,0.66
		c-0.149,0.2-0.29,0.39-0.42,0.57c-0.391-0.05-0.811-0.133-1.261-0.248c-0.449-0.114-0.896-0.272-1.335-0.473
		c-0.431-0.18-0.83-0.392-1.199-0.637c-0.37-0.245-0.671-0.527-0.9-0.848c-0.22,0.3-0.494,0.569-0.824,0.81
		c-0.33,0.241-0.689,0.445-1.08,0.615c-0.431,0.2-0.88,0.362-1.351,0.487s-0.931,0.223-1.38,0.293c-0.08-0.08-0.16-0.17-0.24-0.271
		c-0.08-0.1-0.159-0.2-0.239-0.3c-0.091-0.11-0.181-0.22-0.271-0.33c-0.09-0.109-0.181-0.22-0.271-0.33
		c0.5-0.06,1.015-0.149,1.545-0.27c0.529-0.121,1.021-0.285,1.471-0.495c0.399-0.181,0.755-0.393,1.064-0.638
		c0.309-0.245,0.529-0.532,0.659-0.862L17.155,21.209z M20.5,33.119c-1.681,0-2.936-0.229-3.766-0.689
		c-0.83-0.46-1.244-1.061-1.244-1.8c0-0.721,0.414-1.315,1.244-1.785c0.83-0.471,2.08-0.705,3.75-0.705
		c1.65,0,2.899,0.234,3.75,0.705c0.851,0.47,1.275,1.064,1.275,1.785c0,0.729-0.426,1.327-1.275,1.792
		C23.384,32.887,22.14,33.119,20.5,33.119z M17.35,30.63c0,0.39,0.279,0.691,0.84,0.907c0.561,0.215,1.33,0.322,2.311,0.322
		c0.96,0,1.726-0.104,2.295-0.315c0.57-0.21,0.854-0.51,0.854-0.899c0-0.4-0.284-0.707-0.854-0.923
		C22.226,29.507,21.46,29.4,20.5,29.4c-0.979,0-1.75,0.105-2.311,0.315S17.35,30.229,17.35,30.63z"/>
	<path fill="#FFFFFF" d="M31.06,27.93h-1.665v-4.62H37v-1.86h-6.314c-0.21,0-0.428,0.005-0.651,0.016
		c-0.227,0.01-0.443,0.024-0.653,0.045v-1.53c0.24,0.03,0.466,0.048,0.676,0.053c0.21,0.005,0.42,0.007,0.63,0.007h7.965
		c-0.029,0.19-0.05,0.405-0.061,0.646c-0.01,0.24-0.015,0.465-0.015,0.675v3.33H30.97v1.845h6.569c0.239,0,0.468,0,0.683,0
		s0.442-0.015,0.683-0.045v1.5c-0.25-0.03-0.479-0.047-0.689-0.053c-0.21-0.005-0.436-0.007-0.675-0.007h-0.465v2.16h0.915
		c0.39,0,0.771-0.003,1.146-0.008s0.758-0.022,1.147-0.053v1.53c-0.391-0.03-0.772-0.048-1.147-0.053
		c-0.375-0.005-0.758-0.008-1.146-0.008h-7.936c-0.391,0-0.771,0.003-1.146,0.008c-0.375,0.005-0.759,0.022-1.147,0.053v-1.53
		c0.39,0.03,0.772,0.048,1.147,0.053s0.757,0.008,1.146,0.008h1.005V27.93z M32.665,27.93v2.16h2.806v-2.16H32.665z"/>
</g>
<radialGradient id="SVGID_1_" cx="26.0955" cy="20.1455" r="19.9853" gradientUnits="userSpaceOnUse">
	<stop  offset="0" style="stop-color:#FFFFFF"/>
	<stop  offset="0.4839" style="stop-color:#FF0000"/>
	<stop  offset="1" style="stop-color:#BF1000"/>
</radialGradient>
<path fill="url(#SVGID_1_)" d="M47.59,25.621c0-11.296-9.157-20.456-20.449-20.456c-11.295,0-20.456,9.16-20.456,20.456
	c0,9.992,7.18,18.308,16.659,20.092l3.793,6.533l3.793-6.532C40.41,43.933,47.59,35.615,47.59,25.621z"/>
</svg>
