<?xml version="1.0" encoding="utf-8"?>
<!-- Generator: Adobe Illustrator 16.0.3, SVG Export Plug-In . SVG Version: 6.00 Build 0)  -->
<!DOCTYPE svg PUBLIC "-//W3C//DTD SVG 1.1//EN" "http://www.w3.org/Graphics/SVG/1.1/DTD/svg11.dtd">
<svg version="1.1" id="Layer_1" xmlns="http://www.w3.org/2000/svg" xmlns:xlink="http://www.w3.org/1999/xlink" x="0px" y="0px"
	 width="107.716px" height="65.197px" viewBox="0 0 107.716 65.197" enable-background="new 0 0 107.716 65.197"
	 xml:space="preserve">
<g>
	<path fill="#414042" d="M21.24,64.891c-5.442,0-9.87-4.428-9.87-9.869c0-5.443,4.428-9.871,9.87-9.871
		c5.444,0,9.872,4.428,9.872,9.871C31.112,60.463,26.685,64.891,21.24,64.891z"/>
	<path fill="#414042" d="M80.077,64.891c-5.443,0-9.873-4.428-9.873-9.869c0-5.443,4.43-9.871,9.873-9.871
		c5.441,0,9.869,4.428,9.869,9.871C89.946,60.463,85.518,64.891,80.077,64.891z"/>
	<path fill="#EF4136" d="M107.305,0.317V54.2H92.083c-0.426-6.26-5.641-11.227-12.006-11.227c-6.367,0-11.582,4.967-12.008,11.227
		H42.972V0.305h8.524h45.625h10.172L107.305,0.317z"/>
	<g>
		<path fill="#EF4136" d="M40.117,10.868H18.735L0.411,29.19V54.2h8.822c0.426-6.26,5.641-11.227,12.007-11.227
			c6.367,0,11.583,4.967,12.009,11.227h6.997L40.117,10.868z M31.219,29.844c0,0.752-0.609,1.361-1.361,1.361H15.097
			c-0.534,0-1.018-0.313-1.239-0.797c-0.221-0.486-0.137-1.057,0.214-1.459l7.073-8.105c0.258-0.297,0.633-0.467,1.025-0.467h7.688
			c0.752,0,1.361,0.609,1.361,1.361V29.844z"/>
	</g>
	<g>
		<path fill="#FFFFFF" d="M93.84,19.767V6.205h-9.455v13.563c-2.898,1.647-4.854,4.761-4.854,8.332c0,5.29,4.289,9.58,9.58,9.58
			s9.582-4.289,9.582-9.58C98.694,24.528,96.739,21.415,93.84,19.767z"/>
		
			<line fill="none" stroke="#FFFFFF" stroke-width="1.2443" stroke-miterlimit="10" x1="97.141" y1="17.851" x2="100.874" y2="17.851"/>
		
			<line fill="none" stroke="#FFFFFF" stroke-width="1.2443" stroke-miterlimit="10" x1="97.141" y1="12.563" x2="100.874" y2="12.563"/>
		
			<line fill="none" stroke="#FFFFFF" stroke-width="1.2443" stroke-miterlimit="10" x1="97.141" y1="7.275" x2="100.874" y2="7.275"/>
		<path fill="#EF4136" d="M90.428,23.599V11.458c0-0.71-0.576-1.286-1.287-1.286s-1.291,0.576-1.291,1.286v12.141
			c-1.889,0.558-3.27,2.304-3.27,4.374c0,2.52,2.041,4.562,4.561,4.562s4.561-2.042,4.561-4.562
			C93.702,25.902,92.321,24.156,90.428,23.599z"/>
	</g>
</g>
</svg>
